<svg xmlns="http://www.w3.org/2000/svg" class="emol-logo-navbar" viewBox="0 0 151.67 40.62">
    <title>Emol Logo</title>
    <path d="M52.44,31.11V9.51H65v.61H53.11V21.57h9.27v.61H53.11V30.5H65.53v.61Z" fill="#ff6f59"/>
    <path d="M95.82,31.11V10.27H95.7l-9.55,15H85.6l-9.52-15H76V31.11h-.67V9.51h1.19l9.4,14.75,9.4-14.75H96.5v21.6Z" fill="#ff6f59"/>
    <path d="M138.3,31.11V9.51H139v21h12.7v.61Z" fill="#ff6f59"/>
    <path d="M117.4,32.1a11.78,11.78,0,0,1-4.57-.88,11,11,0,0,1-3.65-2.45,11.26,11.26,0,0,1-2.4-3.72,12.62,12.62,0,0,1-.87-4.73,12.63,12.63,0,0,1,.87-4.73,11.27,11.27,0,0,1,2.4-3.72,11,11,0,0,1,3.63-2.45,12.34,12.34,0,0,1,9.17,0,11,11,0,0,1,3.63,2.45,11.26,11.26,0,0,1,2.4,3.72h0a12.63,12.63,0,0,1,.87,4.73A12.62,12.62,0,0,1,128,25a11.26,11.26,0,0,1-2.4,3.72A11,11,0,0,1,122,31.21,11.79,11.79,0,0,1,117.4,32.1Zm0-22.82a11,11,0,0,0-4.29.82,10.31,10.31,0,0,0-3.39,2.28,10.56,10.56,0,0,0-2.24,3.48,11.91,11.91,0,0,0-.81,4.45,11.91,11.91,0,0,0,.81,4.45,10.54,10.54,0,0,0,2.24,3.48,10.25,10.25,0,0,0,3.4,2.28,11.56,11.56,0,0,0,8.56,0,10.26,10.26,0,0,0,3.4-2.28,10.55,10.55,0,0,0,2.24-3.48,11.91,11.91,0,0,0,.81-4.45,11.91,11.91,0,0,0-.81-4.45,10.55,10.55,0,0,0-2.24-3.48,10.3,10.3,0,0,0-3.39-2.28A11,11,0,0,0,117.4,9.27Z" fill="#ff6f59"/>
    <path d="M4,18.49A14.87,14.87,0,0,0,18.83,33.36,11.88,11.88,0,0,0,30.7,21.49,9.47,9.47,0,0,0,21.24,12a7.54,7.54,0,0,0-7.54,7.54c0,.06,0,.11,0,.17a7.19,7.19,0,0,1,7.35-6.35,7.86,7.86,0,0,1,7.85,7.85A9.79,9.79,0,0,1,19.13,31,12.2,12.2,0,0,1,6.95,18.83,15.19,15.19,0,0,1,22.13,3.64,19,19,0,0,1,40.46,17.77,20.31,20.31,0,0,0,20.31,0h0A18.62,18.62,0,0,0,4,18.49Z" fill="#ff6f59"/>
    <path d="M18.49,36.66A14.87,14.87,0,0,0,33.36,21.79,11.88,11.88,0,0,0,21.49,9.92,9.47,9.47,0,0,0,12,19.38a7.54,7.54,0,0,0,7.54,7.54h.17a7.19,7.19,0,0,1-6.35-7.35,7.86,7.86,0,0,1,7.85-7.85A9.79,9.79,0,0,1,31,21.49,12.2,12.2,0,0,1,18.83,33.68,15.19,15.19,0,0,1,3.64,18.49,19,19,0,0,1,17.77.16,20.31,20.31,0,0,0,0,20.31v0H0A18.62,18.62,0,0,0,18.49,36.66Z" fill="#ff6f59"/>
    <path d="M36.66,22.13A14.87,14.87,0,0,0,21.79,7.26,11.88,11.88,0,0,0,9.92,19.13a9.47,9.47,0,0,0,9.46,9.46,7.54,7.54,0,0,0,7.54-7.54c0-.06,0-.11,0-.17a7.19,7.19,0,0,1-7.35,6.35,7.86,7.86,0,0,1-7.85-7.85A9.79,9.79,0,0,1,21.49,9.6,12.2,12.2,0,0,1,33.68,21.79,15.19,15.19,0,0,1,18.49,37,19,19,0,0,1,.16,22.85,20.31,20.31,0,0,0,20.31,40.62h0A18.62,18.62,0,0,0,36.66,22.13Z" fill="#ff6f59"/>
    <path d="M22.13,4A14.87,14.87,0,0,0,7.26,18.83,11.88,11.88,0,0,0,19.13,30.7a9.47,9.47,0,0,0,9.46-9.46,7.54,7.54,0,0,0-7.54-7.54h-.17a7.19,7.19,0,0,1,6.35,7.35,7.86,7.86,0,0,1-7.85,7.85A9.79,9.79,0,0,1,9.6,19.13,12.2,12.2,0,0,1,21.79,6.95,15.19,15.19,0,0,1,37,22.13,19,19,0,0,1,22.85,40.46,20.31,20.31,0,0,0,40.62,20.31v0A18.62,18.62,0,0,0,22.13,4Z" fill="#ff6f59"/>
    <rect x="18.25" y="18.25" width="4.12" height="4.12" rx="0.64" ry="0.64" fill="#ff6f59"/>
</svg>
